{"title":"We Need to Talk about Kevin 2011 DVDrip English Klam","uid":8055572,"size":1680672506,"categoryP":"video","categoryS":"movies","magnet":"?xt=urn:btih:eb50a419365083eaa30b686e9577dcabb6d60065&amp;dn=We+Need+to+Talk+about+Kevin+2011+DVDrip+English+Klam&amp;tr=udp%3A%2F%2Ftracker.openbittorrent.com%3A80&amp;tr=udp%3A%2F%2Fopen.demonii.com%3A1337&amp;tr=udp%3A%2F%2Ftracker.coppersurfer.tk%3A6969&amp;tr=udp%3A%2F%2Fexodus.desync.com%3A6969","seeders":0,"leechers":1,"uploader":"Klambake","files":-1,"time":1358957225,"description":"With: Tilda Swinton, John C. Reilly and Ezra Miller\n\nBij de geboorte van Kevin heeft Eva haar professionele leven en persoonlijke ambities op een laag pitje gezet. De communicatie tussen moeder en zoon verloopt moeizaam. Aan de vooravond van zijn 16de verjaardag pleegt Kevin een onherstelbare daad. Eva probeert erachter te komen of zij ervoor verantwoordelijk is. We Need to Talk about Kevin is de aangrijpende zoektocht van een moeder naar het antwoord op de vraag of het karakter van haar kind aangeboren of aangeleerd is.\n\nKevin's mother struggles to love her strange child, despite the increasingly vicious things he says and does as he grows up. But Kevin is just getting started, and his final act will be beyond anything anyone imagined. \n &lt;a href=&quot;\nhttp://www.imdb.com/title/tt1242460&quot; rel=&quot;nofollow&quot; target=&quot;_NEW&quot;&gt;\nhttp://www.imdb.com/title/tt1242460&lt;/a&gt;\t\n\n------------------------ Dutch Friends ------------------------\n---------------------------------------------------------------\n- Bezoek ook eens mijn vrienden op: &lt;a href=&quot; http://www.Film-Test.nl&quot; rel=&quot;nofollow&quot; target=&quot;_NEW&quot;&gt; http://www.Film-Test.nl&lt;/a&gt; --\n----- voor mijn Nederlandse Sync. ondertitels ---- en meer ----\n------- http://www.Film-Test.nl ---- Over Films en meer -------\n---------------------------------------------------------------\n\nGeneral:\n\nComplete name                    : We Need to Talk about KevinWe Need to Talk about Kevin.avi\nFormat                           : AVI\nFormat/Info                      : Audio Video Interleave\nFile size                        : 1.56 GiB\nDuration                         : 1h 47mn\nOverall bit rate                 : 2 075 Kbps\n\nVideo:\n\nFormat                           : MPEG-4 Visual\nFormat profile                   : Simple@L3\nFormat settings, BVOP            : No\nFormat settings, QPel            : No\nFormat settings, GMC             : No warppoints\nFormat settings, Matrix          : Default (H.263)\nCodec ID                         : XVID\nCodec ID/Hint                    : XviD\nDuration                         : 1h 47mn\nBit rate                         : 1 616 Kbps\nWidth                            : 720 pixels\nHeight                           : 304 pixels\nDisplay aspect ratio             : 2.35:1\nFrame rate                       : 25.000 fps\nColor space                      : YUV\nChroma subsampling               : 4:2:0\nBit depth                        : 8 bits\nScan type                        : Progressive\nCompression mode                 : Lossy\nBits/(Pixel*Frame)               : 0.295\nStream size                      : 1.21 GiB (78%)\nWriting library                  : XviD 1.1.2 (UTC 2006-11-01)\n\nAudio:\n\nFormat                           : AC-3\nFormat/Info                      : Audio Coding 3\nMode extension                   : CM (complete main)\nCodec ID                         : 2000\nDuration                         : 1h 47mn\nBit rate mode                    : Constant\nBit rate                         : 448 Kbps\nChannel(s)                       : 6 channels\nChannel positions                : Front: L C R, Side: L R, LFE\nSampling rate                    : 48.0 KHz\nBit depth                        : 16 bits\nCompression mode                 : Lossy\nStream size                      : 344 MiB (22%)\nAlignment                        : Aligned on interleaves\nInterleave, duration             : 32 ms (0.80 video frame)\nInterleave, preload duration     : 320 ms","torrent":{"xt":"urn:btih:eb50a419365083eaa30b686e9577dcabb6d60065","amp;dn":"We+Need+to+Talk+about+Kevin+2011+DVDrip+English+Klam","amp;tr":["udp%3A%2F%2Ftracker.openbittorrent.com%3A80","udp%3A%2F%2Fopen.demonii.com%3A1337","udp%3A%2F%2Ftracker.coppersurfer.tk%3A6969","udp%3A%2F%2Fexodus.desync.com%3A6969"],"infoHash":"eb50a419365083eaa30b686e9577dcabb6d60065","infoHashBuffer":{"type":"Buffer","data":[235,80,164,25,54,80,131,234,163,11,104,110,149,119,220,171,182,214,0,101]},"announce":[],"urlList":[]}}